<svg width="80" height="80" viewBox="0 0 80 80" fill="none" xmlns="http://www.w3.org/2000/svg">
<path fill-rule="evenodd" clip-rule="evenodd" d="M40.3254 72.7996C58.2873 72.7996 72.8479 58.1148 72.8479 39.9996C72.8479 21.8844 58.2873 7.19958 40.3254 7.19958C22.3635 7.19958 7.80298 21.8844 7.80298 39.9996C7.80298 58.1148 22.3635 72.7996 40.3254 72.7996Z" fill="#D9E4EC"/>
<path fill-rule="evenodd" clip-rule="evenodd" d="M40.0139 41.1353C40.0139 37.1091 39.5857 33.8154 35.5936 33.8154C31.6015 33.8154 28.3357 37.1091 28.3357 41.1353V55.2024H40.0139V41.1353Z" fill="#FFF0F1"/>
<path fill-rule="evenodd" clip-rule="evenodd" d="M39.249 24.4617C39.249 28.2501 36.2028 31.3237 32.4451 31.3237C28.6887 31.3237 25.6411 28.2501 25.6411 24.4617C25.6411 20.6719 28.6887 17.5997 32.4451 17.5997C36.2028 17.5997 39.249 20.6719 39.249 24.4617Z" fill="white"/>
<path fill-rule="evenodd" clip-rule="evenodd" d="M24.5531 24.4617C24.5531 20.0796 28.0793 16.5117 32.445 16.5117C36.8123 16.5117 40.337 20.0798 40.337 24.4617C40.337 27.359 38.7951 29.9016 36.4872 31.2912C39.3813 32.7833 41.3686 35.8218 41.3686 39.3015V44.8355C42.617 45.2985 44.0368 45.6532 45.6401 45.8224C46.2306 45.8847 46.6587 46.4138 46.5964 47.0042C46.5341 47.5947 46.005 48.0228 45.4145 47.9605C43.932 47.8041 42.5854 47.5048 41.3686 47.111V55.5745H37.0764V64.4507H34.9004V55.5745H29.612V64.4507H27.436V55.5745H23.5222V39.3015C23.5222 35.8218 25.5094 32.7833 28.4035 31.2912C26.0956 29.9017 24.5531 27.3591 24.5531 24.4617ZM32.445 18.6877C29.2981 18.6877 26.7291 21.2642 26.7291 24.4617C26.7291 27.658 29.2983 30.2357 32.445 30.2357C35.593 30.2357 38.161 27.6581 38.161 24.4617C38.161 21.2641 35.5932 18.6877 32.445 18.6877ZM39.1926 43.8409C38.1589 43.272 37.2888 42.644 36.5705 42.0335C35.6204 41.2262 34.9353 40.449 34.4916 39.8799C34.2699 39.5957 34.1093 39.3643 34.0066 39.2086C33.9552 39.1307 33.9185 39.0719 33.8959 39.0348C33.8846 39.0163 33.8769 39.0033 33.8726 38.9961L33.869 38.9898C33.5755 38.4752 32.9208 38.2949 32.4052 38.5871C31.8886 38.8798 31.7072 39.5358 31.9999 40.0523L32.9351 39.5224C31.9999 40.0523 32.0004 40.0533 32.0004 40.0533L32.0011 40.0544L32.0026 40.0571L32.0067 40.0643L32.0191 40.0855C32.0292 40.1027 32.043 40.1258 32.0605 40.1546C32.0956 40.2122 32.1458 40.2923 32.2115 40.3919C32.3429 40.5912 32.5366 40.8692 32.7961 41.202C33.3147 41.867 34.0992 42.755 35.1783 43.6719C36.2295 44.5652 37.5599 45.4853 39.1926 46.2524V53.3985H25.6982V39.3015C25.6982 35.5464 28.7456 32.4874 32.4454 32.4874C36.1452 32.4874 39.1926 35.5464 39.1926 39.3015V43.8409Z" fill="#262626"/>
<path fill-rule="evenodd" clip-rule="evenodd" d="M44.8772 47.0342H60.904V27.6699H44.8772V47.0342Z" fill="white"/>
<path fill-rule="evenodd" clip-rule="evenodd" d="M44.8772 26.6499C44.3138 26.6499 43.8572 27.1066 43.8572 27.6699V47.0342C43.8572 47.5976 44.3138 48.0542 44.8772 48.0542H60.904C61.4673 48.0542 61.924 47.5976 61.924 47.0342V27.6699C61.924 27.1066 61.4673 26.6499 60.904 26.6499H44.8772ZM45.8972 46.0142V28.6899H49.8434V30.8901C49.8434 31.4909 50.3305 31.9781 50.9314 31.9781H54.849C55.4499 31.9781 55.937 31.4909 55.937 30.8901V28.6899H59.884V46.0142H45.8972ZM53.761 28.6899H52.0194V29.8021H53.761V28.6899Z" fill="#262626"/>
<path fill-rule="evenodd" clip-rule="evenodd" d="M15.1947 15.1041C15.5964 14.7053 16.2454 14.7076 16.6443 15.1093L19.2219 17.7053C19.6208 18.107 19.6185 18.756 19.2168 19.1549C18.815 19.5537 18.1661 19.5514 17.7672 19.1497L15.1896 16.5537C14.7907 16.152 14.793 15.503 15.1947 15.1041ZM69.6964 40.8464C69.6964 40.2804 70.1553 39.8214 70.7214 39.8214H71.9065C72.4726 39.8214 72.9315 40.2804 72.9315 40.8464C72.9315 41.4125 72.4726 41.8714 71.9065 41.8714H70.7214C70.1553 41.8714 69.6964 41.4125 69.6964 40.8464ZM7.20239 40.8672C7.20239 40.3011 7.6613 39.8422 8.22739 39.8422H9.3917C9.95779 39.8422 10.4167 40.3011 10.4167 40.8672C10.4167 41.4333 9.95779 41.8922 9.3917 41.8922H8.22739C7.6613 41.8922 7.20239 41.4333 7.20239 40.8672ZM17.2288 60.2857C17.5827 60.7275 17.5115 61.3726 17.0697 61.7265L11.3195 66.3328C10.8776 66.6867 10.2326 66.6155 9.87863 66.1737C9.52471 65.7319 9.59596 65.0868 10.0378 64.7329L15.788 60.1266C16.2298 59.7727 16.8749 59.8439 17.2288 60.2857Z" fill="#262626"/>
</svg>
