<svg width="60" height="60" viewBox="0 0 60 60" fill="none" xmlns="http://www.w3.org/2000/svg">
<g clip-path="url(#clip0_309_116)">
<path d="M30 60C46.5685 60 60 46.5685 60 30C60 13.4315 46.5685 0 30 0C13.4315 0 0 13.4315 0 30C0 46.5685 13.4315 60 30 60Z" fill="#D9E4EC"/>
<path d="M51.4641 49.322H8.75225C8.34547 44.0339 11.9726 41.3559 13.837 40.678C18.8942 41.0847 22.0459 38.8136 22.9896 37.6271C25.5319 38.6441 26.0404 39.661 30.6167 39.661C34.2777 39.661 36.5489 38.3051 37.2268 37.6271C41.2946 40.1695 37.2268 39.661 44.854 40.1695C50.9557 40.5763 51.8031 46.4407 51.4641 49.322Z" fill="#FFF0F1"/>
<path d="M42.5032 38.819C42.2609 38.8047 42.0422 38.7919 41.8534 38.7757C40.8377 38.6832 38.8063 37.88 38.2576 37.2527C38.2392 37.2318 38.2198 37.2117 38.1993 37.1924L37.5114 36.5441C37.5089 36.5417 37.506 36.5404 37.5035 36.538C37.4785 36.5165 37.4524 36.4965 37.4252 36.4779C37.4051 36.4632 37.3859 36.4464 37.3647 36.4336C37.3435 36.4209 37.3178 36.4107 37.294 36.3993C37.2673 36.385 37.2397 36.3721 37.2115 36.3608C37.1925 36.3539 37.1728 36.3509 37.1536 36.3455C37.1196 36.3348 37.0851 36.3262 37.0501 36.3197C37.0319 36.3171 37.0135 36.3178 36.9952 36.3163C36.9586 36.312 36.9218 36.3102 36.885 36.3107C36.8662 36.3107 36.8478 36.3156 36.829 36.3176C36.7927 36.3205 36.7566 36.3257 36.7209 36.3331C36.7045 36.337 36.689 36.3442 36.6728 36.3489C36.6345 36.3594 36.597 36.3726 36.5606 36.3882C36.5476 36.3943 36.5357 36.4029 36.5232 36.4099C36.4842 36.4291 36.4468 36.4515 36.4113 36.4766C36.4093 36.4779 36.4074 36.4786 36.4054 36.4801C36.3242 36.5402 36.2414 36.5976 36.1589 36.6553V33.1223C37.9867 32.9579 39.6871 32.1161 40.9262 30.7623C42.1652 29.4085 42.8534 27.6403 42.8556 25.8051V24.2924C42.8549 23.8013 42.7021 23.3226 42.4184 22.9218C42.1347 22.521 41.7338 22.2179 41.271 22.054C41.1846 21.5709 40.9868 21.1146 40.6933 20.7213C40.3997 20.328 40.0186 20.0086 39.58 19.7884C39.4936 19.7489 39.4013 19.7241 39.3068 19.7149C39.3665 19.6194 39.4283 19.5226 39.4918 19.4234C39.9545 18.7012 40.479 17.8826 40.479 16.7288C40.479 14.2195 40.479 10.1036 36.8212 9.45594C35.6571 6.35596 31.6661 6.35596 30.1085 6.35596C27.3587 6.35939 24.7225 7.45343 22.7784 9.39804C20.8342 11.3426 19.7408 13.979 19.738 16.7288C19.738 17.816 20.1918 18.5959 20.6302 19.3501C20.7 19.4703 20.7685 19.5894 20.8353 19.7089C19.6969 20.1411 18.8738 21.3528 18.8738 22.7797C18.8738 24.567 20.1637 26.0212 21.7492 26.0212C21.7723 26.0212 21.7939 26.0162 21.8166 26.0145C22.2337 28.6006 23.0093 30.8375 24.0589 32.582V36.6551C23.9761 36.5972 23.8934 36.5397 23.8121 36.4794C23.8097 36.4777 23.8074 36.4771 23.8052 36.4753C23.7719 36.4522 23.737 36.4314 23.7008 36.4131C23.6857 36.4051 23.6714 36.3949 23.6561 36.3878C23.6218 36.3732 23.5865 36.3609 23.5506 36.3509C23.5323 36.3452 23.5145 36.3372 23.4957 36.3329C23.4612 36.3258 23.4263 36.3208 23.3911 36.318C23.3711 36.3158 23.3514 36.3113 23.3313 36.3104C23.2944 36.31 23.2575 36.312 23.2209 36.3163C23.2027 36.3178 23.1846 36.3163 23.1666 36.3197C23.1304 36.3264 23.0947 36.3352 23.0596 36.3463C23.0417 36.3515 23.0231 36.3543 23.0054 36.3606C22.9759 36.3725 22.947 36.3861 22.919 36.4012C22.8974 36.412 22.874 36.4207 22.8528 36.4334C22.8317 36.4462 22.8096 36.4652 22.788 36.4814C22.7626 36.4987 22.7382 36.5175 22.715 36.5376C22.7122 36.5399 22.7089 36.5417 22.7063 36.5443L22.0187 37.1926C21.9984 37.2116 21.9789 37.2317 21.9606 37.2527C21.4119 37.8793 19.3807 38.6832 18.3648 38.7757C18.176 38.7928 17.9573 38.8056 17.715 38.819C14.8938 38.9854 8.28735 39.3752 8.50475 48.732C8.51 48.9577 8.60338 49.1725 8.76492 49.3302C8.92646 49.488 9.14334 49.5763 9.36915 49.5763H50.8492C51.0751 49.5763 51.2919 49.488 51.4535 49.3302C51.615 49.1725 51.7084 48.9577 51.7137 48.732C51.9308 39.3763 45.3244 38.9854 42.5032 38.819ZM23.2185 22.5956C23.3535 21.5509 23.6369 20.4875 23.8798 20.0961C24.8485 20.4127 26.9268 20.5932 28.9549 20.3554C31.0267 20.111 32.6234 19.491 33.673 18.5374C34.343 20.1962 35.004 20.8216 36.6788 21.7986C36.7665 21.8488 36.8624 21.883 36.9621 21.8997C36.9714 22.0417 36.9852 22.1869 37.0077 22.3382C36.8997 26.0033 36.0988 29.1834 34.8385 31.4248H33.1028C33.0555 31.2395 32.948 31.0752 32.7972 30.9576C32.6463 30.8401 32.4607 30.776 32.2695 30.7754H29.8924C29.6631 30.7754 29.4432 30.8665 29.2811 31.0286C29.119 31.1907 29.0279 31.4106 29.0279 31.6398V32.2881C29.0279 32.5174 29.119 32.7373 29.2811 32.8994C29.4432 33.0615 29.6631 33.1526 29.8924 33.1526H33.6052C32.591 34.257 31.4025 34.8814 30.1085 34.8814C26.3612 34.8814 23.4921 29.6733 23.2185 22.5956ZM41.1268 25.8051C41.1252 27.0595 40.7046 28.2774 39.9317 29.2654C39.1588 30.2535 38.0779 30.9549 36.8608 31.2584C37.6098 29.5885 38.1277 27.8243 38.4003 26.0145C38.4219 26.0162 38.4435 26.0212 38.4677 26.0212C39.6375 26.0212 40.6443 25.2285 41.0931 24.0957C41.1145 24.1591 41.1259 24.2255 41.1268 24.2924V25.8051ZM39.6141 22.7797C39.6141 23.5317 39.172 24.1753 38.62 24.2768C38.7048 23.3774 38.751 22.4458 38.751 21.4831C38.7503 21.4149 38.7415 21.3471 38.7249 21.281C38.7626 21.308 38.8024 21.3319 38.8439 21.3525C39.3044 21.5695 39.6141 22.1433 39.6141 22.7797ZM30.1085 8.08478C33.3338 8.08478 34.9396 8.81109 35.3165 10.4403C35.3582 10.6211 35.4571 10.7837 35.5984 10.9041C35.7397 11.0244 35.916 11.0961 36.1012 11.1085C38.3415 11.258 38.7512 13.1182 38.7512 16.729C38.7512 17.3773 38.4361 17.8683 38.0381 18.4911C37.6937 18.9897 37.4114 19.5284 37.1972 20.0953C35.8836 19.3086 35.5711 18.919 34.7715 16.4617C34.7174 16.2955 34.6142 16.1496 34.4755 16.0432C34.3368 15.9369 34.1691 15.8751 33.9945 15.866C33.82 15.8568 33.6468 15.9009 33.4977 15.9922C33.3487 16.0836 33.2309 16.218 33.1598 16.3777C31.895 19.2211 25.413 18.8961 24.3526 18.4289C24.1526 18.3371 23.9334 18.2951 23.7136 18.3064C23.4939 18.3177 23.2801 18.3819 23.0906 18.4937C22.8423 18.6501 22.6334 18.8615 22.4801 19.1116C22.3614 18.8866 22.2404 18.6768 22.1267 18.4812C21.7594 17.8491 21.4687 17.3499 21.4687 16.729C21.4709 14.4379 22.3818 12.2412 24.0014 10.6207C25.6211 9.00019 27.8173 8.08821 30.1085 8.08478ZM20.6026 22.7797C20.6026 22.1009 20.9626 21.5107 21.4391 21.327C21.4495 21.3968 21.4607 21.4664 21.467 21.5395C21.467 21.8707 21.475 22.1977 21.4858 22.5219C21.4808 22.5651 21.4754 22.6105 21.4713 22.6498C21.4589 22.7657 21.4701 22.8829 21.5044 22.9943C21.526 23.4293 21.5577 23.8561 21.5973 24.2768C21.0447 24.1753 20.6026 23.5317 20.6026 22.7797ZM25.7877 34.7733C27.0372 35.9528 28.5015 36.6102 30.1085 36.6102C31.7154 36.6102 33.1797 35.9522 34.4292 34.7733V37.6362C33.0694 38.2424 31.5972 38.5556 30.1085 38.5556C28.6197 38.5556 27.1475 38.2424 25.7877 37.6362V34.7733ZM10.2329 47.8475C10.4192 40.9811 15.0226 40.7096 17.8157 40.5447C18.0783 40.5292 18.3154 40.5151 18.5202 40.4963C19.7604 40.3835 22.2501 39.5023 23.2297 38.4248L23.381 38.2826C25.3817 39.5886 27.7193 40.284 30.1086 40.284C32.4978 40.284 34.8354 39.5886 36.8361 38.2826L36.9874 38.425C37.967 39.5033 40.4567 40.3837 41.6967 40.4966C41.9016 40.5154 42.1386 40.5294 42.4012 40.545C45.1943 40.7098 49.7977 40.9813 49.984 47.8477L10.2329 47.8475Z" fill="#262626"/>
<path d="M24.052 14.9725C24.2495 15.0889 24.4851 15.122 24.707 15.0646C24.9289 15.0072 25.119 14.864 25.2353 14.6665C26.5319 12.4656 28.4535 11.5136 31.1101 11.7548C31.3362 11.7715 31.5597 11.6986 31.7326 11.552C31.9055 11.4054 32.0139 11.1967 32.0345 10.971C32.055 10.7452 31.986 10.5204 31.8423 10.345C31.6987 10.1696 31.4919 10.0577 31.2665 10.0333C27.9727 9.7332 25.3702 11.0321 23.7462 13.789C23.6298 13.9865 23.5966 14.2221 23.6539 14.4441C23.7113 14.666 23.8545 14.8561 24.052 14.9725Z" fill="#262626"/>
</g>
<defs>
<clipPath id="clip0_309_116">
<rect width="60" height="60" fill="white"/>
</clipPath>
</defs>
</svg>
